<svg width="250" height="250" viewBox="0 0 250 250" fill="none" xmlns="http://www.w3.org/2000/svg">
<rect width="250" height="250" rx="125" fill="#718C02"/>
<path fill-rule="evenodd" clip-rule="evenodd" d="M71.1247 39.4557C68.0961 40.0516 66.1442 42.1157 66.1465 44.7189C66.1478 46.0506 66.3731 46.4264 69.2167 49.8426C70.9043 51.8703 74.2857 56.3712 76.7305 59.8448C79.1753 63.3184 82.4822 67.883 84.0793 69.9883C89.3811 76.9778 90.3856 79.3406 89.2831 82.2278C88.1359 85.2317 85.356 86.613 82.9397 85.3803C81.0734 84.4282 75.9064 77.9465 69.8395 68.9478C67.8049 65.9301 65.9199 63.6069 63.9188 61.6511C60.6938 58.4996 59.8405 58.1697 58.4655 59.5447C57.7175 60.2928 57.6994 60.4659 57.5522 68.3172C57.3849 77.2149 57.6443 79.4567 59.1348 81.9998C60.422 84.1964 62.3463 86.1535 64.7993 87.7618C65.9904 88.5426 68.4929 90.1797 70.3602 91.3999C74.1696 93.8893 77.9973 97.3189 78.606 98.7878C79.1497 100.101 78.8221 101.174 77.3936 102.755C75.8988 104.41 74.7376 105.021 73.0903 105.021C71.8396 105.021 69.6184 103.834 63.3754 99.8306C59.9947 97.6623 57.6187 99.0977 57.6187 103.308C57.6187 105.857 58.6167 107.788 60.6424 109.159C62.448 110.381 75.5109 114.824 78.0741 115.089C81.3928 115.431 82.2733 114.328 85.9728 105.185C89.5363 96.3801 92.6146 91.3084 97.1219 86.8179C102.582 81.3777 110.2 77.1699 118.038 75.2652C121.737 74.3667 130 74.4703 133.701 75.462C145.108 78.5187 154.989 87.6135 161.896 101.414C166.824 111.261 169.119 121.846 169.119 134.736C169.119 140.162 169.175 140.75 169.768 141.504C170.561 142.512 172.3 142.783 177.909 142.771C186.304 142.753 191.019 140.754 192.095 136.755C192.748 134.328 191.505 129.047 189.849 127.218C188.605 125.843 187.495 125.558 183.665 125.63C180.118 125.697 179.981 125.673 178.948 124.804C176.778 122.978 176.353 119.927 177.924 117.449C179.076 115.633 181.192 114.523 185.285 113.586C188.803 112.781 190.176 111.974 191.306 110.046C192.038 108.798 192.167 108.204 192.138 106.221C192.119 104.93 191.868 102.988 191.58 101.906C190.338 97.2327 188.773 96.8811 184.081 100.221C181.309 102.194 179.77 102.925 177.407 103.39C173.743 104.111 171.545 103.025 170.759 100.105C170.297 98.3893 170.908 96.4368 172.322 95.1093C173.646 93.8667 182.568 87.5348 185.19 85.9764C188.441 84.0455 190.262 82.3193 191.31 80.1771L192.223 78.3125L192.133 68.1371C192.035 56.994 192.016 56.8851 190.003 55.8977C188.657 55.2376 187.835 55.8928 184.945 59.9294C183.524 61.9135 180.969 65.3998 179.266 67.677C177.563 69.9542 174.885 73.6436 173.316 75.8755C169.683 81.0419 166.525 84.5201 165.014 85.0189C161.474 86.187 158.332 82.5282 159.272 78.3335C159.76 76.1533 160.514 74.7891 163.296 71.0433C169.988 62.0364 181.56 45.9988 182.048 45.0553C182.806 43.5901 182.605 42.1098 181.542 41.3197C180.37 40.4491 176.797 40.1054 169.939 40.2038C165.002 40.2743 164.213 40.3625 163.048 40.9731C160.077 42.5298 159.222 43.9656 157.314 50.6015C155.144 58.153 152.394 66.3718 151.544 67.8534C151.112 68.6044 150.237 69.5414 149.599 69.9359C147.141 71.4549 143.336 70.6039 142.146 68.2693C141.093 66.2026 141.378 64.5262 144.2 56.1827C147.795 45.5574 148.057 42.741 145.585 41.3024C144.036 40.4009 138.082 39.8706 134.628 40.3267C131.713 40.7114 130.652 41.2919 129.602 43.0749C128.999 44.0977 128.932 44.9491 128.781 53.5346C128.66 60.3823 128.501 63.0829 128.186 63.6365C126.694 66.259 121.5 66.3712 119.685 63.8198C118.273 61.8357 117.92 59.6785 117.676 51.5528C117.35 40.7249 117.299 40.6543 109.627 40.4733C99.3915 40.2316 98.6343 41.728 103.017 53.5346C105.064 59.0509 105.824 62.0161 106.04 65.3404C106.244 68.471 105.94 69.627 104.7 70.4396C102.491 71.8865 99.5021 71.6421 97.7597 69.8719C96.8582 68.956 96.3 67.5901 94.2334 61.2412C92.8826 57.0927 91.3809 52.3704 90.8962 50.7471C89.8629 47.286 88.8856 45.5003 86.9865 43.6016C83.4739 40.09 76.7846 38.3417 71.1247 39.4557ZM119.436 85.4816C109.719 87.7004 100.368 98.2149 94.1825 113.876C92.5536 118 92.2578 121.881 93.3525 124.775C94.437 127.643 96.4476 130.414 100.243 134.273C105.729 139.85 107.015 139.591 109.804 132.347C112.144 126.271 115.522 120.629 121.551 112.728C126.097 106.77 127.6 104.522 128.974 101.629C130.48 98.4579 131.155 95.0916 131.021 91.4117C130.897 88.0057 130.301 86.8179 128.215 85.8161C126.614 85.0477 122.09 84.8752 119.436 85.4816ZM143.877 97.8981C143.432 98.1237 142.889 98.6747 142.671 99.123C142.453 99.5716 141.926 100.676 141.498 101.578C139.473 105.851 136.047 111.226 128.993 121.2C124.368 127.74 121.994 131.538 120.582 134.65C115.659 145.509 117.977 159.601 126.592 171.179C128.713 174.028 130.837 174.867 133.045 173.725C133.568 173.454 135.069 171.942 136.38 170.364C139.802 166.243 143.403 162.801 148.124 159.136C152.424 155.799 154.14 153.897 156.119 150.275C157.904 147.009 158.325 144.622 158.274 138.047C158.158 122.766 156.607 114.892 151.726 104.801C149.633 100.475 148.243 98.613 146.588 97.9217C145.289 97.3786 144.91 97.3754 143.877 97.8981ZM61.3901 122.857C59.1427 123.836 58.6504 125.512 58.5629 132.486C58.4927 138.087 58.7482 140.496 60.9375 154.868C63.6552 172.707 69.7693 187.591 78.5194 197.667C83.2254 203.087 89.7609 207.458 96.6775 209.81C99.8939 210.904 101.632 210.887 102.523 209.754C102.897 209.279 103.203 208.713 103.203 208.497C103.203 208.148 100.34 204.519 90.2758 192.111C85.499 186.221 82.1858 180.722 78.1114 171.921C75.0252 165.255 74.8829 162.878 77.4526 160.918C79.0166 159.725 81.2728 159.5 82.8702 160.378C84.5273 161.288 85.6328 162.998 89.9124 171.265C95.7717 182.586 99.8005 188.252 107.226 195.618C111.92 200.273 112.887 200.947 114.176 200.457C115.431 199.98 115.755 198.747 115.56 195.205C115.082 186.543 111.345 173.266 106.624 163.454C101.44 152.682 96.5401 145.839 87.6588 136.97C80.0407 129.362 74.9219 125.83 68.1155 123.483C64.7885 122.336 62.9727 122.167 61.3901 122.857ZM182.072 154.014C174.973 155.826 172.012 156.851 168.135 158.837C160.83 162.581 147.979 173.905 142.037 181.835C137.679 187.65 133.349 195.918 133.314 198.493C133.283 200.701 135.097 202.263 136.705 201.414C138.215 200.616 144.001 196.386 146.778 194.048C150.099 191.253 156.86 184.379 160.084 180.52C161.331 179.026 162.822 177.513 163.396 177.158C165.5 175.858 168.41 176.646 169.776 178.887C170.924 180.77 170.475 183.888 168.675 186.538C168.231 187.191 163.427 192.196 157.999 197.661C149.519 206.199 148.13 207.733 148.13 208.568C148.13 209.824 149.454 211.274 150.601 211.274C152.45 211.274 160.461 207.535 165.183 204.466C179.781 194.984 188.621 179.459 190.761 159.547C191.538 152.324 190.725 151.806 182.072 154.014Z" fill="white"/>
</svg>
